<svg width="167" height="50" viewBox="0 0 167 50" fill="none" xmlns="http://www.w3.org/2000/svg">
<path d="M72.9873 23.3951H75.3543L75.4034 23.8351C75.5945 25.4421 76.5582 26.3541 78.1785 26.3136C79.6089 26.2791 80.631 25.4601 80.9728 24.0501C81.0293 23.8311 81.0573 23.6006 81.0573 23.3726L81.0603 11.3311H83.3742L83.3885 22.8781C83.3885 23.1576 83.3742 23.4351 83.3369 23.7101C82.9577 26.6671 81.2234 28.2336 78.2488 28.2336C75.2909 28.2336 73.5399 26.7336 73.1106 24.1396L72.9873 23.3951Z" fill="#625D5D"/>
<path d="M84.0708 27.894L90.7356 11.4015H93.1861L99.8346 27.9275H97.3851L95.6724 23.639H88.2507L86.539 27.8945L84.0708 27.894ZM88.985 21.734H94.9862L94.0363 19.31L93.2475 17.256C92.4925 15.2725 92.2184 14.3755 91.939 13.1845C91.7135 14.42 91.573 14.8875 90.6162 17.4655L88.985 21.734Z" fill="#625D5D"/>
<path d="M101.039 27.9065V11.369H103.318V27.9065H101.039Z" fill="#625D5D"/>
<path d="M106.504 27.9065V11.3315H110.482L112.232 16.533L113.354 19.5925C113.672 20.465 114.006 21.547 114.447 23.194C114.667 24.0125 114.88 24.926 115.073 25.8615C115.545 23.8245 115.969 22.368 116.924 19.601L118.035 16.517L119.802 11.349H123.693V27.927H121.483V12.6945L116.305 27.9065H113.8L108.631 12.5355V27.9065H106.504Z" fill="#625D5D"/>
<path d="M126.312 27.927V11.3315H136.372V13.31H128.608V18.3615H135.478V20.358H128.608V25.9845H136.357V27.927H126.312Z" fill="#625D5D"/>
<path d="M86.7806 36.768L86.9172 37.4415H84.4495L84.3237 37.018C83.8969 35.5615 82.7485 34.6709 81.1498 34.6324C78.7474 34.5744 76.7925 36.3965 76.4973 39.518C76.4418 40.1109 76.4178 40.6994 76.4217 41.2949C76.4305 41.7334 76.4448 42.1699 76.4688 42.6089C76.6751 46.2009 78.5283 48.1189 81.0299 48.0899C82.5948 48.0719 83.7579 47.2074 84.2402 45.74L84.4667 45.0479H86.9864L86.8346 45.6969C86.2064 48.3319 84.0408 50.0324 80.7912 49.9989C76.5676 49.9499 73.9535 47.0534 73.9354 41.3549C73.9211 35.8599 76.6368 32.9309 80.7941 32.7919C84.2014 32.6719 86.3042 34.346 86.7806 36.768Z" fill="#625D5D"/>
<path d="M86.9131 49.63L93.5808 33.1395H96.0274L102.678 49.666H100.228L98.5137 45.3775H91.095L89.3793 49.63H86.9131ZM91.7841 32.025L93.7945 29.725H95.6128L97.663 32.061H95.8049L94.7022 30.9395L93.6167 32.0245L91.7841 32.025ZM91.8273 43.471H97.8285L96.8771 41.049L96.0888 38.992C95.3377 37.0115 95.0607 36.116 94.7812 34.9205C94.5553 36.156 94.4163 36.624 93.4585 39.2025L91.8273 43.471Z" fill="#625D5D"/>
<path d="M103.88 49.646V33.068H107.857L109.607 38.269L110.728 41.331C111.047 42.202 111.385 43.285 111.823 44.93C112.042 45.749 112.258 46.667 112.451 47.6005C112.921 45.5635 113.346 44.104 114.299 41.338L115.411 38.256L117.178 33.088H121.069V49.6655H118.859V34.4305L113.682 49.6455H111.179L106.008 34.2735V49.6455L103.88 49.646Z" fill="#625D5D"/>
<path d="M122.172 49.63L128.839 33.1395H131.286L137.937 49.666H135.488L133.773 45.3775H126.354L124.64 49.63H122.172ZM127.089 43.471H133.087L132.135 41.049L131.348 38.992C130.595 37.0115 130.32 36.116 130.038 34.9205C129.814 36.156 129.677 36.624 128.717 39.2025L127.089 43.471Z" fill="#625D5D"/>
<path d="M138.742 49.646V33.068L144.886 33.0785C145.402 33.0785 145.97 33.1205 146.576 33.2065C148.74 33.518 150.094 35.041 150.15 37.244C150.192 39.196 149.203 40.592 147.57 41.087L147.086 41.233L147.538 41.38C148.846 41.8125 149.356 42.623 149.645 45.4295C149.785 46.8575 149.981 47.73 150.422 48.9545L150.668 49.6455H148.027L147.72 48.103C147.598 47.499 147.482 46.774 147.308 45.5C147.276 45.2585 147.24 45.017 147.2 44.771C146.899 42.9205 146.145 42.159 144.446 42.0695L143.795 42.0565L140.989 42.059V49.6455L138.742 49.646ZM141.002 40.27H144.315C144.643 40.27 145.017 40.2475 145.423 40.189C146.788 39.9995 147.711 38.97 147.716 37.4875C147.72 35.979 146.799 35.1045 145.085 35.0755C144.567 35.065 144.059 35.0625 143.543 35.0625H141.002V40.27H141.002Z" fill="#625D5D"/>
<path d="M151.236 49.63L157.905 33.1395H160.352L167 49.666H164.554L162.837 45.3775H155.419L153.704 49.63H151.236ZM156.152 43.471H162.15L161.202 41.049L160.413 38.992C159.66 37.0115 159.384 36.116 159.104 34.9205C158.881 36.156 158.74 36.624 157.782 39.2025L156.152 43.471Z" fill="#625D5D"/>
<path d="M80.1841 1.96706L80.2351 2.24206H78.9748L78.9419 2.04956C78.8431 1.44306 78.353 1.02006 77.4197 0.94456C77.2134 0.92856 77.0086 0.93806 76.8053 0.96906C75.4835 1.17556 74.6131 2.25856 74.6092 4.19456C74.6092 4.56156 74.6465 4.92806 74.7187 5.29106C75.0139 6.73206 76.0223 7.64106 77.4399 7.67406C77.7901 7.68356 78.1761 7.64106 78.6324 7.53756L79.0691 7.43706V5.09406H77.207V4.12006H80.1909V8.27156L79.7292 8.37006C79.5598 8.40806 79.3923 8.43956 79.2214 8.47056C78.5519 8.59356 78.1702 8.63356 77.7252 8.65156C75.1068 8.72106 73.5365 7.27506 73.4152 4.62756C73.3955 4.24756 73.4151 3.86456 73.4697 3.49056C73.7501 1.60406 74.7335 0.51406 76.3116 0.13806C76.6874 0.0505597 77.068 0.0125597 77.4531 0.0255597C79.0047 0.0825597 79.9792 0.89256 80.1841 1.96706Z" fill="#625D5D"/>
<path d="M82.0986 8.48901V0.192505L85.1729 0.196505C85.4322 0.196505 85.7147 0.217005 86.0192 0.259005C87.1018 0.415505 87.781 1.1785 87.8081 2.282C87.8302 3.2555 87.3336 3.95651 86.5182 4.2045L86.2751 4.2785L86.503 4.3525C87.1573 4.5675 87.4127 4.9725 87.5571 6.3775C87.6283 7.092 87.726 7.528 87.9451 8.141L88.0679 8.4885H86.7501L86.5924 7.7185C86.531 7.41351 86.4735 7.0515 86.3876 6.4135C86.3704 6.2925 86.3522 6.17 86.334 6.049C86.1823 5.12 85.8055 4.7415 84.9543 4.697L84.6277 4.6875L83.2234 4.6895V8.488H82.0986V8.48901ZM83.2288 3.79551H84.888C85.0516 3.79551 85.2397 3.7845 85.4421 3.755C86.1243 3.6615 86.588 3.144 86.5909 2.406C86.5919 1.647 86.1317 1.211 85.2741 1.1975C85.0147 1.193 84.7593 1.19 84.502 1.19H83.2288V3.79551Z" fill="#625D5D"/>
<path d="M89.2783 5.4655L89.2842 0.192505H90.409L90.412 5.4655C90.412 5.5905 90.4218 5.7185 90.4331 5.848C90.5647 7.05 91.2003 7.657 92.5397 7.6715C93.9317 7.69201 94.6071 6.9825 94.611 5.4655V0.192505H95.7943L95.7903 5.4655C95.7903 5.6825 95.7702 5.9335 95.727 6.237C95.528 7.5525 94.4072 8.587 92.6041 8.6095C92.357 8.6115 92.1055 8.5935 91.8604 8.5535C90.2027 8.2695 89.3869 7.3515 89.2955 5.982C89.2837 5.8095 89.2783 5.637 89.2783 5.4655Z" fill="#625D5D"/>
<path d="M97.7534 8.48905V0.20105L100.202 0.20305L100.543 0.20705C100.689 0.20905 100.833 0.21855 100.974 0.23455C102.484 0.37755 103.243 1.18305 103.237 2.46105C103.235 3.84655 102.394 4.67655 100.814 4.74855C100.543 4.76005 100.229 4.76855 99.8164 4.76855H98.8934V8.48855H97.7534V8.48905ZM98.8831 3.83355L100.181 3.82955L100.601 3.82305C101.619 3.80305 102.042 3.42005 102.058 2.48505C102.071 1.61855 101.625 1.16655 100.732 1.13955C100.49 1.13305 100.246 1.12805 100.002 1.12805H98.8831V3.83355Z" fill="#625D5D"/>
<path d="M103.9 3.8225L103.903 3.807C104.118 1.394 105.548 0.018 107.504 0C107.671 0 107.837 0.0105 108.002 0.0285C109.794 0.2435 111.107 1.7255 111.128 4.1535C111.131 4.326 111.126 4.503 111.11 4.6725C110.931 7.143 109.598 8.535 107.675 8.659C105.63 8.784 104.009 7.2915 103.88 4.666C103.866 4.3845 103.874 4.102 103.9 3.8225ZM105.106 4.476C105.112 4.6665 105.128 4.859 105.146 5.0515C105.313 6.703 106.128 7.5955 107.321 7.683C107.528 7.697 107.733 7.683 107.934 7.641C109.133 7.3945 109.783 6.5085 109.894 4.546C109.904 4.3595 109.91 4.17 109.907 3.9815C109.877 2.093 108.899 1.0495 107.664 1.0025C107.441 0.993 107.224 1.013 107.01 1.0565C105.884 1.2845 105.127 2.236 105.102 3.988C105.099 4.1495 105.099 4.3125 105.106 4.476Z" fill="#625D5D"/>
<path d="M48.7537 35.5395C48.8283 35.181 48.9457 34.6955 49.0376 34.2365C49.0376 34.2365 52.185 18.9035 52.7145 16.251C53.4331 12.6475 55.0083 9.55053 59.0743 7.84253C54.4494 8.07953 50.7012 8.79103 47.5911 10.0075C41.9145 12.2315 38.4031 16.153 36.8913 21.979C36.8205 22.3055 36.7798 22.5 36.7798 22.5C35.4236 29.1365 34.8819 31.8285 34.2497 35.0765C32.8936 42.0415 39.1084 49.984 46.3081 49.984C47.8951 49.984 61.3352 49.984 61.3352 49.984L62.482 44.3465C62.482 44.3465 61.9143 44.3465 56.2382 44.3465C50.5612 44.3455 47.4614 41.9225 48.7537 35.5395Z" fill="#625D5D"/>
<path d="M56.862 0.776001C40.5967 0.776001 38.6168 13.9745 38.3142 15.353C44.3788 6.6045 56.8473 5.8795 67.748 6.4295C67.7622 6.4295 67.7755 6.4295 67.7907 6.4295C68.133 4.5435 68.9513 0.776001 68.9513 0.776001C68.9513 0.776001 58.3375 0.776001 56.862 0.776001Z" fill="#625D5D"/>
<path d="M22.3112 39.6725C16.7378 42.714 9.69631 44.363 2.36109 44.363C1.96421 44.363 1.56096 44.3585 1.16212 44.3505C0.818791 46.237 0 49.9995 0 49.9995C0 49.9995 7.47669 49.9995 8.95267 49.9995C30.0364 49.9995 30.8149 34.713 31.4751 31.564C29.3532 34.7665 26.2642 37.5155 22.3112 39.6725Z" fill="#625D5D"/>
<path d="M32.7871 25.1925V25.1945C35.0259 14.176 37.6262 0.776489 37.6262 0.776489H23.0589C23.0589 0.776489 17.3362 29.031 16.1912 34.5185C15.5674 37.5175 14.3817 40.172 11.6636 41.9645C22.4754 39.6955 30.6279 33.4905 32.7871 25.1925Z" fill="#625D5D"/>
</svg>
